<svg width="87" height="44" viewBox="0 0 87 44" fill="none" xmlns="http://www.w3.org/2000/svg">
<path d="M2.70343 2.32178C4.13503 1.16334 6.09545 0.5 8.15625 0.5H78.8438C80.9045 0.5 82.865 1.16334 84.2966 2.32178C85.7253 3.47792 86.5 5.02047 86.5 6.6V13.2C86.5 13.6126 86.2982 14.036 85.8892 14.3669C85.4773 14.7002 84.8999 14.9 84.2812 14.9C82.0157 14.9 79.827 15.6274 78.1994 16.9444C76.5689 18.2638 75.625 20.0787 75.625 22C75.625 23.9213 76.5689 25.7362 78.1994 27.0556C79.827 28.3726 82.0157 29.1 84.2812 29.1C84.8999 29.1 85.4773 29.2998 85.8892 29.633C86.2982 29.964 86.5 30.3874 86.5 30.8V37.4C86.5 38.9795 85.7253 40.5221 84.2966 41.6782C82.865 42.8367 80.9045 43.5 78.8438 43.5H8.15625C6.09545 43.5 4.13503 42.8367 2.70343 41.6782C1.27468 40.5221 0.5 38.9795 0.5 37.4V30.8C0.5 30.3874 0.701807 29.964 1.11083 29.633C1.5227 29.2998 2.10006 29.1 2.71875 29.1C4.98429 29.1 7.17302 28.3726 8.80061 27.0556C10.4311 25.7362 11.375 23.9213 11.375 22C11.375 20.0787 10.4311 18.2638 8.80061 16.9444C7.17302 15.6274 4.98429 14.9 2.71875 14.9C2.10006 14.9 1.5227 14.7002 1.11083 14.367C0.701806 14.036 0.5 13.6126 0.5 13.2V6.6C0.5 5.02047 1.27468 3.47792 2.70343 2.32178Z" fill="#F4D9BE" fill-opacity="0.6" stroke="#4D2700"/>
</svg>
