<svg width="20" height="25" viewBox="0 0 20 25" fill="none" xmlns="http://www.w3.org/2000/svg">
<path d="M10 2C10.9472 2 11.8556 2.39509 12.5254 3.09835C13.1952 3.80161 13.5714 4.75544 13.5714 5.75V6.5H6.42857V5.75C6.42857 4.75544 6.80485 3.80161 7.47462 3.09835C8.14439 2.39509 9.0528 2 10 2ZM15 6.5V5.75C15 4.35761 14.4732 3.02226 13.5355 2.03769C12.5979 1.05312 11.3261 0.5 10 0.5C8.67392 0.5 7.40215 1.05312 6.46447 2.03769C5.52678 3.02226 5 4.35761 5 5.75V6.5H0V21.5C0 22.2956 0.30102 23.0587 0.836838 23.6213C1.37266 24.1839 2.09938 24.5 2.85714 24.5H17.1429C17.9006 24.5 18.6273 24.1839 19.1632 23.6213C19.699 23.0587 20 22.2956 20 21.5V6.5H15Z" fill="#4D2700"/>
</svg>
