<svg width="24" height="25" viewBox="0 0 24 25" fill="none" xmlns="http://www.w3.org/2000/svg">
<g clip-path="url(#clip0_744_965)">
<path d="M12.08 1.5C9.67268 1.50284 7.36481 2.46039 5.6626 4.16259C3.9604 5.8648 3.00285 8.17267 3.00001 10.58C2.99713 12.5472 3.63972 14.461 4.82921 16.0279C4.82921 16.0279 5.07684 16.354 5.11729 16.401L12.08 24.6126L19.0459 16.3969C19.0823 16.3532 19.3307 16.0279 19.3307 16.0279L19.3315 16.0255C20.5204 14.4593 21.1627 12.5463 21.1599 10.58C21.1571 8.17267 20.1995 5.8648 18.4973 4.16259C16.7951 2.46039 14.4872 1.50284 12.08 1.5ZM12.08 13.8818C11.4269 13.8818 10.7886 13.6881 10.2456 13.3253C9.7026 12.9625 9.2794 12.4468 9.0295 11.8435C8.77959 11.2402 8.71421 10.5763 8.84161 9.93581C8.96901 9.29532 9.28347 8.707 9.74524 8.24523C10.207 7.78346 10.7953 7.469 11.4358 7.3416C12.0763 7.2142 12.7402 7.27958 13.3435 7.52949C13.9468 7.77939 14.4625 8.2026 14.8253 8.74557C15.1881 9.28855 15.3818 9.92692 15.3818 10.58C15.3807 11.4553 15.0325 12.2945 14.4135 12.9135C13.7945 13.5324 12.9553 13.8807 12.08 13.8818Z" fill="#4D2700"/>
</g>
<defs>
<clipPath id="clip0_744_965">
<rect width="24" height="24" fill="white" transform="translate(0 0.5)"/>
</clipPath>
</defs>
</svg>
