<svg width="24" height="25" viewBox="0 0 24 25" fill="none" xmlns="http://www.w3.org/2000/svg">
<path d="M7.539 22.8809C16.596 22.8809 21.5505 15.3764 21.5505 8.87992C21.5505 8.66992 21.5505 8.45692 21.5415 8.24692C22.5061 7.54865 23.3386 6.68415 24 5.69392C23.099 6.0912 22.1441 6.35303 21.1665 6.47092C22.1963 5.85538 22.9676 4.88688 23.337 3.74542C22.3695 4.31861 21.3105 4.72098 20.2065 4.93492C19.4643 4.14446 18.4821 3.6208 17.4121 3.44506C16.3422 3.26932 15.2441 3.4513 14.288 3.96283C13.3319 4.47435 12.5712 5.28687 12.1237 6.27451C11.6761 7.26216 11.5668 8.36982 11.8125 9.42592C9.85461 9.32775 7.93922 8.81912 6.19056 7.93304C4.4419 7.04695 2.89903 5.80319 1.662 4.28242C1.03401 5.36705 0.842361 6.65002 1.12597 7.87082C1.40958 9.09162 2.14718 10.1587 3.189 10.8554C2.40831 10.8289 1.64478 10.6193 0.96 10.2434V10.3109C0.961346 11.4471 1.35496 12.5481 2.07431 13.4276C2.79366 14.3071 3.79462 14.9112 4.908 15.1379C4.48539 15.2543 4.04884 15.3124 3.6105 15.3104C3.30148 15.3114 2.99307 15.2827 2.6895 15.2249C3.00418 16.203 3.61691 17.0582 4.44187 17.6706C5.26683 18.2831 6.2627 18.6222 7.29 18.6404C5.54483 20.0111 3.3891 20.7545 1.17 20.7509C0.778981 20.7526 0.388235 20.73 0 20.6834C2.25227 22.1193 4.86795 22.8817 7.539 22.8809V22.8809Z" fill="#4D2700"/>
</svg>
