<svg width="248" height="87" viewBox="0 0 248 87" fill="none" xmlns="http://www.w3.org/2000/svg">
<path d="M0.584961 30.733C0.584961 14.1645 14.0164 0.733002 30.585 0.733002H217.414C233.982 0.733002 247.414 14.1645 247.414 30.733V86.3155H0.584961V30.733Z" fill="#7B3F00"/>
<path d="M36.5393 22.0643C36.5393 20.9763 36.3899 20.1763 36.0913 19.6643C35.7926 19.1309 35.1953 18.8643 34.2993 18.8643H33.9793V17.9043H42.6193C45.3073 17.9043 47.5473 18.2776 49.3393 19.0243C51.1526 19.7709 52.0593 21.2643 52.0593 23.5043C52.0593 24.4856 51.6646 25.4136 50.8753 26.2883C50.1073 27.1416 49.0193 27.7496 47.6113 28.1123C51.2166 28.4749 53.0193 30.1603 53.0193 33.1683C53.0193 35.3869 52.1339 36.9229 50.3633 37.7763C48.5926 38.6083 46.3313 39.0243 43.5793 39.0243H36.5393V22.0643ZM43.0993 27.4723C44.4859 27.4723 45.5739 27.1523 46.3633 26.5123C47.1739 25.8509 47.5793 24.7949 47.5793 23.3443C47.5793 21.8723 47.0993 20.8163 46.1393 20.1763C45.2006 19.5149 44.0273 19.1843 42.6193 19.1843C42.0433 19.1843 41.5953 19.2269 41.2753 19.3123L40.6993 19.4083V27.4723H43.0993ZM43.0993 37.7443C44.8699 37.7443 46.2139 37.3603 47.1313 36.5923C48.0699 35.8243 48.5393 34.7363 48.5393 33.3283C48.5393 30.3843 46.7259 28.9123 43.0993 28.9123H40.6993V37.4243C40.9339 37.5096 41.1473 37.5629 41.3393 37.5843C41.8086 37.6909 42.3419 37.7443 42.9393 37.7443H43.0993ZM59.501 39.0243C58.733 39.0243 58.1464 38.9069 57.741 38.6723C57.3357 38.4163 57.0477 38.0003 56.877 37.4243C56.7064 36.8269 56.621 35.9736 56.621 34.8643V17.9043H60.781V34.8643C60.781 35.9523 60.9304 36.7629 61.229 37.2963C61.5277 37.8083 62.125 38.0643 63.021 38.0643H63.341V39.0243H59.501ZM76.2643 39.6643C74.0883 39.6643 72.1149 39.1629 70.3443 38.1603C68.5949 37.1363 67.2189 35.7496 66.2163 34.0003C65.2349 32.2296 64.7443 30.2776 64.7443 28.1443C64.7443 26.0963 65.1816 24.2509 66.0563 22.6083C66.9309 20.9443 68.1683 19.6429 69.7683 18.7043C71.3896 17.7443 73.2349 17.2643 75.3043 17.2643C77.1816 17.2643 78.7816 17.5096 80.1043 18.0003C81.4269 18.4909 82.4083 19.1096 83.0483 19.8563C83.4109 20.3256 83.6349 20.9229 83.7203 21.6483C83.8269 22.3736 83.8803 23.2589 83.8803 24.3043H82.9203C82.5149 22.3629 81.7683 20.9443 80.6803 20.0483C79.6136 19.1523 78.1416 18.7043 76.2643 18.7043C73.8749 18.7043 72.1043 19.6003 70.9523 21.3923C69.8003 23.1843 69.2243 25.4349 69.2243 28.1443C69.2243 31.7923 69.8536 34.4163 71.1123 36.0163C72.3923 37.5949 74.1096 38.3843 76.2643 38.3843C77.9283 38.3843 79.3683 38.1069 80.5843 37.5523V31.8563C80.5843 30.7256 81.0109 29.7976 81.8643 29.0723C82.7176 28.3256 84.3603 27.9523 86.7923 27.9523V28.7523C85.4269 28.7523 84.7443 29.7656 84.7443 31.7923V37.5203C83.5283 38.2669 82.2269 38.8109 80.8403 39.1523C79.4536 39.4936 77.9283 39.6643 76.2643 39.6643ZM95.8603 39.5683C94.6656 39.5683 93.5136 39.4083 92.4043 39.0883C91.2949 38.7896 90.3883 38.3523 89.6843 37.7763C88.9803 37.1789 88.6283 36.4963 88.6283 35.7283V31.9843H89.5243C89.8443 34.1603 90.5163 35.7283 91.5403 36.6883C92.5643 37.6483 93.9936 38.1283 95.8283 38.1283C97.0656 38.1283 98.0469 37.8616 98.7723 37.3283C99.4976 36.7949 99.8603 36.0269 99.8603 35.0243C99.8603 34.1709 99.5936 33.4456 99.0603 32.8483C98.5269 32.2509 97.6949 31.6003 96.5643 30.8963L92.6283 28.5283C91.1989 27.6963 90.1749 26.8323 89.5563 25.9363C88.9589 25.0403 88.6603 23.9949 88.6603 22.8003C88.6603 21.1149 89.3003 19.7816 90.5803 18.8003C91.8816 17.8189 93.6309 17.3283 95.8283 17.3283C97.0229 17.3283 98.1749 17.4883 99.2843 17.8083C100.394 18.1069 101.3 18.5549 102.004 19.1523C102.708 19.7283 103.06 20.4003 103.06 21.1683V24.9123H102.164C101.802 22.7363 101.13 21.1683 100.148 20.2083C99.1669 19.2483 97.8443 18.7683 96.1803 18.7683C95.0283 18.7683 94.1109 19.0456 93.4283 19.6003C92.7669 20.1549 92.4363 20.9123 92.4363 21.8723C92.4363 22.7043 92.6923 23.3976 93.2043 23.9523C93.7376 24.4856 94.5909 25.0936 95.7643 25.7763L99.7003 28.1123C101.194 28.9869 102.26 29.8403 102.9 30.6723C103.562 31.4829 103.892 32.4643 103.892 33.6163C103.892 35.4723 103.188 36.9336 101.78 38.0003C100.394 39.0456 98.4203 39.5683 95.8603 39.5683ZM116.806 39.6643C114.608 39.6643 112.71 39.1949 111.11 38.2563C109.531 37.2963 108.326 35.9949 107.494 34.3523C106.662 32.7096 106.246 30.8536 106.246 28.7843C106.246 26.6509 106.704 24.7096 107.622 22.9603C108.539 21.1896 109.798 19.8029 111.398 18.8003C113.019 17.7763 114.822 17.2643 116.806 17.2643C118.683 17.2643 120.251 17.5096 121.51 18.0003C122.768 18.4696 123.728 19.0883 124.39 19.8563C124.774 20.3469 125.008 20.9549 125.094 21.6803C125.179 22.4056 125.222 23.4189 125.222 24.7203H124.262C123.856 22.7576 123.11 21.2643 122.022 20.2403C120.934 19.2163 119.515 18.7043 117.766 18.7043C115.59 18.7043 113.872 19.4723 112.614 21.0083C111.355 22.5443 110.726 25.1363 110.726 28.7843C110.726 31.4936 111.302 33.7443 112.454 35.5363C113.606 37.3283 115.376 38.2243 117.766 38.2243C119.259 38.2243 120.624 37.8296 121.862 37.0403C123.12 36.2509 124.134 35.1203 124.902 33.6483L126.022 34.5123C124.998 36.3043 123.76 37.6163 122.31 38.4483C120.859 39.2589 119.024 39.6643 116.806 39.6643ZM144.701 39.3443C143.527 39.3443 142.461 39.0029 141.501 38.3203C140.541 37.6163 139.538 36.4109 138.493 34.7043L135.293 29.3603H134.013V39.0243H129.821V22.0643C129.821 20.9763 129.671 20.1763 129.373 19.6643C129.074 19.1309 128.477 18.8643 127.581 18.8643H127.261V17.9043H136.093C138.311 17.9043 140.306 18.3096 142.077 19.1203C143.847 19.9309 144.733 21.4883 144.733 23.7923C144.733 26.4589 143.005 28.2296 139.549 29.1043L142.909 34.7043C144.167 36.8163 145.49 37.9896 146.877 38.2243V39.0243C146.706 39.1096 146.397 39.1843 145.949 39.2483C145.501 39.3123 145.085 39.3443 144.701 39.3443ZM135.933 28.0803C137.127 28.0803 138.141 27.7283 138.973 27.0243C139.826 26.2989 140.253 25.1683 140.253 23.6323C140.253 22.1176 139.837 20.9976 139.005 20.2723C138.173 19.5469 137.202 19.1843 136.093 19.1843C135.474 19.1843 134.994 19.2269 134.653 19.3123L134.013 19.4083V28.0803H135.933ZM149.539 22.0643C149.539 20.9763 149.39 20.1763 149.091 19.6643C148.793 19.1309 148.195 18.8643 147.299 18.8643H146.979V17.9043H161.091C162.905 17.9043 163.811 18.7576 163.811 20.4643V23.1843H162.851C162.851 21.8616 162.51 20.8909 161.827 20.2723C161.166 19.6536 160.174 19.3443 158.851 19.3443H153.699V27.3443H162.019V28.7843H153.699V37.5843H159.171C160.387 37.5843 161.401 37.3176 162.211 36.7843C163.022 36.2296 163.694 35.2803 164.227 33.9363L165.091 34.2563L164.163 36.7843C163.886 37.5523 163.555 38.1176 163.171 38.4803C162.787 38.8429 162.19 39.0243 161.379 39.0243H149.539V22.0643ZM185.783 39.1523C184.439 39.1523 183.223 38.8749 182.135 38.3203C181.047 37.7443 180.161 36.6349 179.479 34.9923L178.743 33.2003H170.231L167.607 39.0243H165.943L175.383 17.9043H176.823L183.991 34.9923C184.801 36.9763 185.911 38.0429 187.319 38.1923V38.9923C186.935 39.0989 186.423 39.1523 185.783 39.1523ZM170.903 31.7603H178.135L174.615 23.4083L170.903 31.7603ZM213.51 40.4643C211.206 40.4643 209.542 39.9309 208.518 38.8643C207.515 37.7763 207.014 36.0163 207.014 33.5843V22.2563L200.006 39.0243H198.95L190.374 21.6163V39.0243H188.774V17.9043H192.678L200.422 33.6163L206.982 17.9043H211.174V33.5843C211.174 35.5896 211.344 37.0616 211.686 38.0003C212.027 38.9389 212.635 39.4936 213.51 39.6643V40.4643Z" fill="white"/>
<path d="M33.4993 42.2243H214.15V43.8243H33.4993V42.2243Z" fill="white"/>
<path d="M46.3158 63.4383C46.3158 62.8783 46.4068 62.3498 46.5888 61.8528C46.7778 61.3558 47.0753 60.9568 47.4813 60.6558C47.8943 60.3478 48.4368 60.1938 49.1088 60.1938C49.6058 60.1938 50.0608 60.2708 50.4738 60.4248C50.8938 60.5718 51.2928 60.7328 51.6708 60.9078C51.9718 61.0478 52.2623 61.1703 52.5423 61.2753C52.8223 61.3803 53.0988 61.4328 53.3718 61.4328C53.7638 61.4328 54.0718 61.3173 54.2958 61.0863C54.5268 60.8553 54.6563 60.5578 54.6843 60.1938H56.1753C56.1753 60.7608 56.0843 61.2928 55.9023 61.7898C55.7203 62.2798 55.4228 62.6788 55.0098 62.9868C54.6038 63.2878 54.0613 63.4383 53.3823 63.4383C52.9063 63.4383 52.4618 63.3683 52.0488 63.2283C51.6358 63.0813 51.2438 62.9238 50.8728 62.7558C50.5578 62.6158 50.2533 62.4933 49.9593 62.3883C49.6723 62.2763 49.3853 62.2203 49.0983 62.2203C48.7063 62.2203 48.3983 62.3323 48.1743 62.5563C47.9573 62.7803 47.8313 63.0743 47.7963 63.4383H46.3158ZM66.4779 69.2658C65.3579 69.2658 64.4059 69.0488 63.6219 68.6148C62.8449 68.1808 62.2184 67.5998 61.7424 66.8718C61.2664 66.1368 60.9164 65.3178 60.6924 64.4148C60.4754 63.5118 60.3669 62.5983 60.3669 61.6743C60.3669 60.7713 60.4789 59.8718 60.7029 58.9758C60.9269 58.0728 61.2804 57.2538 61.7634 56.5188C62.2534 55.7768 62.8869 55.1853 63.6639 54.7443C64.4409 54.2963 65.3789 54.0723 66.4779 54.0723C67.3949 54.0723 68.1754 54.2123 68.8194 54.4923C69.4634 54.7653 69.9919 55.1188 70.4049 55.5528C70.8249 55.9868 71.1469 56.4383 71.3709 56.9073L69.4599 57.8523C69.2289 57.5023 68.9804 57.1943 68.7144 56.9283C68.4484 56.6553 68.1369 56.4453 67.7799 56.2983C67.4229 56.1443 66.9889 56.0673 66.4779 56.0673C65.7499 56.0673 65.1339 56.2388 64.6299 56.5818C64.1259 56.9178 63.7234 57.3623 63.4224 57.9153C63.1214 58.4683 62.9044 59.0738 62.7714 59.7318C62.6384 60.3898 62.5719 61.0373 62.5719 61.6743C62.5719 62.3603 62.6454 63.0358 62.7924 63.7008C62.9394 64.3588 63.1739 64.9573 63.4959 65.4963C63.8179 66.0283 64.2239 66.4553 64.7139 66.7773C65.2039 67.0923 65.7919 67.2498 66.4779 67.2498C67.2339 67.2498 67.8464 67.0783 68.3154 66.7353C68.7844 66.3853 69.1869 65.9338 69.5229 65.3808L71.4759 66.1053C71.2029 66.7003 70.8424 67.2358 70.3944 67.7118C69.9464 68.1878 69.4004 68.5658 68.7564 68.8458C68.1124 69.1258 67.3529 69.2658 66.4779 69.2658ZM75.356 69.0243V54.3243H77.477V60.4143H84.176V54.3243H86.297V69.0243H84.176V62.4198H77.477V69.0243H75.356ZM96.8626 69.2763C95.7006 69.2763 94.7171 69.0558 93.9121 68.6148C93.1071 68.1668 92.4596 67.5753 91.9696 66.8403C91.4796 66.0983 91.1226 65.2793 90.8986 64.3833C90.6746 63.4873 90.5626 62.5843 90.5626 61.6743C90.5626 60.7643 90.6746 59.8613 90.8986 58.9653C91.1226 58.0693 91.4796 57.2538 91.9696 56.5188C92.4596 55.7768 93.1071 55.1853 93.9121 54.7443C94.7171 54.2963 95.7006 54.0723 96.8626 54.0723C98.0246 54.0723 99.0081 54.2963 99.8131 54.7443C100.618 55.1853 101.266 55.7768 101.756 56.5188C102.246 57.2538 102.599 58.0693 102.816 58.9653C103.04 59.8613 103.152 60.7643 103.152 61.6743C103.152 62.5843 103.04 63.4873 102.816 64.3833C102.599 65.2793 102.246 66.0983 101.756 66.8403C101.266 67.5753 100.618 68.1668 99.8131 68.6148C99.0081 69.0558 98.0246 69.2763 96.8626 69.2763ZM96.8626 67.2603C97.6186 67.2603 98.2556 67.0888 98.7736 66.7458C99.2986 66.4028 99.7221 65.9548 100.044 65.4018C100.366 64.8488 100.597 64.2468 100.737 63.5958C100.877 62.9378 100.947 62.2973 100.947 61.6743C100.947 60.9953 100.877 60.3268 100.737 59.6688C100.597 59.0038 100.366 58.4018 100.044 57.8628C99.7291 57.3168 99.3091 56.8828 98.7841 56.5608C98.2661 56.2318 97.6256 56.0673 96.8626 56.0673C96.0996 56.0673 95.4556 56.2388 94.9306 56.5818C94.4126 56.9248 93.9926 57.3763 93.6706 57.9363C93.3556 58.4893 93.1246 59.0948 92.9776 59.7528C92.8376 60.4038 92.7676 61.0443 92.7676 61.6743C92.7676 62.3463 92.8376 63.0148 92.9776 63.6798C93.1246 64.3378 93.3556 64.9398 93.6706 65.4858C93.9926 66.0248 94.4126 66.4553 94.9306 66.7773C95.4556 67.0993 96.0996 67.2603 96.8626 67.2603ZM113.002 69.2658C111.882 69.2658 110.93 69.0488 110.146 68.6148C109.369 68.1808 108.742 67.5998 108.266 66.8718C107.79 66.1368 107.44 65.3178 107.216 64.4148C106.999 63.5118 106.891 62.5983 106.891 61.6743C106.891 60.7713 107.003 59.8718 107.227 58.9758C107.451 58.0728 107.804 57.2538 108.287 56.5188C108.777 55.7768 109.411 55.1853 110.188 54.7443C110.965 54.2963 111.903 54.0723 113.002 54.0723C113.919 54.0723 114.699 54.2123 115.343 54.4923C115.987 54.7653 116.516 55.1188 116.929 55.5528C117.349 55.9868 117.671 56.4383 117.895 56.9073L115.984 57.8523C115.753 57.5023 115.504 57.1943 115.238 56.9283C114.972 56.6553 114.661 56.4453 114.304 56.2983C113.947 56.1443 113.513 56.0673 113.002 56.0673C112.274 56.0673 111.658 56.2388 111.154 56.5818C110.65 56.9178 110.247 57.3623 109.946 57.9153C109.645 58.4683 109.428 59.0738 109.295 59.7318C109.162 60.3898 109.096 61.0373 109.096 61.6743C109.096 62.3603 109.169 63.0358 109.316 63.7008C109.463 64.3588 109.698 64.9573 110.02 65.4963C110.342 66.0283 110.748 66.4553 111.238 66.7773C111.728 67.0923 112.316 67.2498 113.002 67.2498C113.758 67.2498 114.37 67.0783 114.839 66.7353C115.308 66.3853 115.711 65.9338 116.047 65.3808L118 66.1053C117.727 66.7003 117.366 67.2358 116.918 67.7118C116.47 68.1878 115.924 68.5658 115.28 68.8458C114.636 69.1258 113.877 69.2658 113.002 69.2658ZM127.386 69.2763C126.224 69.2763 125.241 69.0558 124.436 68.6148C123.631 68.1668 122.983 67.5753 122.493 66.8403C122.003 66.0983 121.646 65.2793 121.422 64.3833C121.198 63.4873 121.086 62.5843 121.086 61.6743C121.086 60.7643 121.198 59.8613 121.422 58.9653C121.646 58.0693 122.003 57.2538 122.493 56.5188C122.983 55.7768 123.631 55.1853 124.436 54.7443C125.241 54.2963 126.224 54.0723 127.386 54.0723C128.548 54.0723 129.532 54.2963 130.337 54.7443C131.142 55.1853 131.789 55.7768 132.279 56.5188C132.769 57.2538 133.123 58.0693 133.34 58.9653C133.564 59.8613 133.676 60.7643 133.676 61.6743C133.676 62.5843 133.564 63.4873 133.34 64.3833C133.123 65.2793 132.769 66.0983 132.279 66.8403C131.789 67.5753 131.142 68.1668 130.337 68.6148C129.532 69.0558 128.548 69.2763 127.386 69.2763ZM127.386 67.2603C128.142 67.2603 128.779 67.0888 129.297 66.7458C129.822 66.4028 130.246 65.9548 130.568 65.4018C130.89 64.8488 131.121 64.2468 131.261 63.5958C131.401 62.9378 131.471 62.2973 131.471 61.6743C131.471 60.9953 131.401 60.3268 131.261 59.6688C131.121 59.0038 130.89 58.4018 130.568 57.8628C130.253 57.3168 129.833 56.8828 129.308 56.5608C128.79 56.2318 128.149 56.0673 127.386 56.0673C126.623 56.0673 125.979 56.2388 125.454 56.5818C124.936 56.9248 124.516 57.3763 124.194 57.9363C123.879 58.4893 123.648 59.0948 123.501 59.7528C123.361 60.4038 123.291 61.0443 123.291 61.6743C123.291 62.3463 123.361 63.0148 123.501 63.6798C123.648 64.3378 123.879 64.9398 124.194 65.4858C124.516 66.0248 124.936 66.4553 125.454 66.7773C125.979 67.0993 126.623 67.2603 127.386 67.2603ZM137.921 69.0243V54.3243H140.042V66.9663H147.235V69.0243H137.921ZM150.103 69.0243L155.437 54.3243H157.432L162.777 69.0243H160.561L159.333 65.5908H153.568L152.361 69.0243H150.103ZM154.219 63.6903H158.65L156.897 58.7448C156.848 58.6118 156.795 58.4613 156.739 58.2933C156.683 58.1183 156.627 57.9468 156.571 57.7788C156.515 57.6108 156.473 57.4638 156.445 57.3378C156.41 57.4638 156.365 57.6108 156.309 57.7788C156.26 57.9468 156.207 58.1183 156.151 58.2933C156.095 58.4613 156.043 58.6118 155.994 58.7448L154.219 63.6903ZM167.514 69.0243V56.3613H163.398V54.3243H173.762V56.3613H169.635V69.0243H167.514ZM177.719 69.0243V54.3243H186.854V56.3298H179.84V60.4248H184.302V62.4303H179.84V66.9978H187.305V69.0243H177.719ZM191.388 63.4383C191.388 62.8783 191.479 62.3498 191.661 61.8528C191.85 61.3558 192.148 60.9568 192.554 60.6558C192.967 60.3478 193.509 60.1938 194.181 60.1938C194.678 60.1938 195.133 60.2708 195.546 60.4248C195.966 60.5718 196.365 60.7328 196.743 60.9078C197.044 61.0478 197.335 61.1703 197.615 61.2753C197.895 61.3803 198.171 61.4328 198.444 61.4328C198.836 61.4328 199.144 61.3173 199.368 61.0863C199.599 60.8553 199.729 60.5578 199.757 60.1938H201.248C201.248 60.7608 201.157 61.2928 200.975 61.7898C200.793 62.2798 200.495 62.6788 200.082 62.9868C199.676 63.2878 199.134 63.4383 198.455 63.4383C197.979 63.4383 197.534 63.3683 197.121 63.2283C196.708 63.0813 196.316 62.9238 195.945 62.7558C195.63 62.6158 195.326 62.4933 195.032 62.3883C194.745 62.2763 194.458 62.2203 194.171 62.2203C193.779 62.2203 193.471 62.3323 193.247 62.5563C193.03 62.7803 192.904 63.0743 192.869 63.4383H191.388Z" fill="white"/>
</svg>
