<svg width="247" height="86" viewBox="0 0 247 86" fill="none" xmlns="http://www.w3.org/2000/svg">
<path d="M0 30C0 13.4315 13.4315 0 30 0H216.829C233.397 0 246.829 13.4315 246.829 30V85.9268H0V30Z" fill="#FBF5EE"/>
<path d="M35.9543 21.5034C35.9543 20.4154 35.805 19.6154 35.5063 19.1034C35.2076 18.57 34.6103 18.3034 33.7143 18.3034H33.3943V17.3434H42.0343C44.7223 17.3434 46.9623 17.7167 48.7543 18.4634C50.5676 19.21 51.4743 20.7034 51.4743 22.9434C51.4743 23.9247 51.0796 24.8527 50.2903 25.7274C49.5223 26.5807 48.4343 27.1887 47.0263 27.5514C50.6316 27.914 52.4343 29.5994 52.4343 32.6074C52.4343 34.826 51.549 36.362 49.7783 37.2154C48.0076 38.0474 45.7463 38.4634 42.9943 38.4634H35.9543V21.5034ZM42.5143 26.9114C43.901 26.9114 44.989 26.5914 45.7783 25.9514C46.589 25.29 46.9943 24.234 46.9943 22.7834C46.9943 21.3114 46.5143 20.2554 45.5543 19.6154C44.6156 18.954 43.4423 18.6234 42.0343 18.6234C41.4583 18.6234 41.0103 18.666 40.6903 18.7514L40.1143 18.8474V26.9114H42.5143ZM42.5143 37.1834C44.285 37.1834 45.629 36.7994 46.5463 36.0314C47.485 35.2634 47.9543 34.1754 47.9543 32.7674C47.9543 29.8234 46.141 28.3514 42.5143 28.3514H40.1143V36.8634C40.349 36.9487 40.5623 37.002 40.7543 37.0234C41.2236 37.13 41.757 37.1834 42.3543 37.1834H42.5143ZM58.9161 38.4634C58.1481 38.4634 57.5614 38.346 57.1561 38.1114C56.7507 37.8554 56.4627 37.4394 56.2921 36.8634C56.1214 36.266 56.0361 35.4127 56.0361 34.3034V17.3434H60.1961V34.3034C60.1961 35.3914 60.3454 36.202 60.6441 36.7354C60.9427 37.2474 61.5401 37.5034 62.4361 37.5034H62.7561V38.4634H58.9161ZM75.6793 39.1034C73.5033 39.1034 71.53 38.602 69.7593 37.5994C68.01 36.5754 66.634 35.1887 65.6313 33.4394C64.65 31.6687 64.1593 29.7167 64.1593 27.5834C64.1593 25.5354 64.5966 23.69 65.4713 22.0474C66.346 20.3834 67.5833 19.082 69.1833 18.1434C70.8046 17.1834 72.65 16.7034 74.7193 16.7034C76.5966 16.7034 78.1966 16.9487 79.5193 17.4394C80.842 17.93 81.8233 18.5487 82.4633 19.2954C82.826 19.7647 83.05 20.362 83.1353 21.0874C83.242 21.8127 83.2953 22.698 83.2953 23.7434H82.3353C81.93 21.802 81.1833 20.3834 80.0953 19.4874C79.0286 18.5914 77.5566 18.1434 75.6793 18.1434C73.29 18.1434 71.5193 19.0394 70.3673 20.8314C69.2153 22.6234 68.6393 24.874 68.6393 27.5834C68.6393 31.2314 69.2686 33.8554 70.5273 35.4554C71.8073 37.034 73.5246 37.8234 75.6793 37.8234C77.3433 37.8234 78.7833 37.546 79.9993 36.9914V31.2954C79.9993 30.1647 80.426 29.2367 81.2793 28.5114C82.1326 27.7647 83.7753 27.3914 86.2073 27.3914V28.1914C84.842 28.1914 84.1593 29.2047 84.1593 31.2314V36.9594C82.9433 37.706 81.642 38.25 80.2553 38.5914C78.8686 38.9327 77.3433 39.1034 75.6793 39.1034ZM95.2753 39.0074C94.0806 39.0074 92.9286 38.8474 91.8193 38.5274C90.71 38.2287 89.8033 37.7914 89.0993 37.2154C88.3953 36.618 88.0433 35.9354 88.0433 35.1674V31.4234H88.9393C89.2593 33.5994 89.9313 35.1674 90.9553 36.1274C91.9793 37.0874 93.4086 37.5674 95.2433 37.5674C96.4806 37.5674 97.462 37.3007 98.1873 36.7674C98.9126 36.234 99.2753 35.466 99.2753 34.4634C99.2753 33.61 99.0086 32.8847 98.4753 32.2874C97.942 31.69 97.11 31.0394 95.9793 30.3354L92.0433 27.9674C90.614 27.1354 89.59 26.2714 88.9713 25.3754C88.374 24.4794 88.0753 23.434 88.0753 22.2394C88.0753 20.554 88.7153 19.2207 89.9953 18.2394C91.2966 17.258 93.046 16.7674 95.2433 16.7674C96.438 16.7674 97.59 16.9274 98.6993 17.2474C99.8086 17.546 100.715 17.994 101.419 18.5914C102.123 19.1674 102.475 19.8394 102.475 20.6074V24.3514H101.579C101.217 22.1754 100.545 20.6074 99.5633 19.6474C98.582 18.6874 97.2593 18.2074 95.5953 18.2074C94.4433 18.2074 93.526 18.4847 92.8433 19.0394C92.182 19.594 91.8513 20.3514 91.8513 21.3114C91.8513 22.1434 92.1073 22.8367 92.6193 23.3914C93.1526 23.9247 94.006 24.5327 95.1793 25.2154L99.1153 27.5514C100.609 28.426 101.675 29.2794 102.315 30.1114C102.977 30.922 103.307 31.9034 103.307 33.0554C103.307 34.9114 102.603 36.3727 101.195 37.4394C99.8086 38.4847 97.8353 39.0074 95.2753 39.0074ZM116.221 39.1034C114.023 39.1034 112.125 38.634 110.525 37.6954C108.946 36.7354 107.741 35.434 106.909 33.7914C106.077 32.1487 105.661 30.2927 105.661 28.2234C105.661 26.09 106.119 24.1487 107.037 22.3994C107.954 20.6287 109.213 19.242 110.813 18.2394C112.434 17.2154 114.237 16.7034 116.221 16.7034C118.098 16.7034 119.666 16.9487 120.925 17.4394C122.183 17.9087 123.143 18.5274 123.805 19.2954C124.189 19.786 124.423 20.394 124.509 21.1194C124.594 21.8447 124.637 22.858 124.637 24.1594H123.677C123.271 22.1967 122.525 20.7034 121.437 19.6794C120.349 18.6554 118.93 18.1434 117.181 18.1434C115.005 18.1434 113.287 18.9114 112.029 20.4474C110.77 21.9834 110.141 24.5754 110.141 28.2234C110.141 30.9327 110.717 33.1834 111.869 34.9754C113.021 36.7674 114.791 37.6634 117.181 37.6634C118.674 37.6634 120.039 37.2687 121.277 36.4794C122.535 35.69 123.549 34.5594 124.317 33.0874L125.437 33.9514C124.413 35.7434 123.175 37.0554 121.725 37.8874C120.274 38.698 118.439 39.1034 116.221 39.1034ZM144.116 38.7834C142.942 38.7834 141.876 38.442 140.916 37.7594C139.956 37.0554 138.953 35.85 137.908 34.1434L134.708 28.7994H133.428V38.4634H129.236V21.5034C129.236 20.4154 129.086 19.6154 128.788 19.1034C128.489 18.57 127.892 18.3034 126.996 18.3034H126.676V17.3434H135.508C137.726 17.3434 139.721 17.7487 141.492 18.5594C143.262 19.37 144.148 20.9274 144.148 23.2314C144.148 25.898 142.42 27.6687 138.964 28.5434L142.324 34.1434C143.582 36.2554 144.905 37.4287 146.292 37.6634V38.4634C146.121 38.5487 145.812 38.6234 145.364 38.6874C144.916 38.7514 144.5 38.7834 144.116 38.7834ZM135.348 27.5194C136.542 27.5194 137.556 27.1674 138.388 26.4634C139.241 25.738 139.668 24.6074 139.668 23.0714C139.668 21.5567 139.252 20.4367 138.42 19.7114C137.588 18.986 136.617 18.6234 135.508 18.6234C134.889 18.6234 134.409 18.666 134.068 18.7514L133.428 18.8474V27.5194H135.348ZM148.954 21.5034C148.954 20.4154 148.805 19.6154 148.506 19.1034C148.208 18.57 147.61 18.3034 146.714 18.3034H146.394V17.3434H160.506C162.32 17.3434 163.226 18.1967 163.226 19.9034V22.6234H162.266C162.266 21.3007 161.925 20.33 161.242 19.7114C160.581 19.0927 159.589 18.7834 158.266 18.7834H153.114V26.7834H161.434V28.2234H153.114V37.0234H158.586C159.802 37.0234 160.816 36.7567 161.626 36.2234C162.437 35.6687 163.109 34.7194 163.642 33.3754L164.506 33.6954L163.578 36.2234C163.301 36.9914 162.97 37.5567 162.586 37.9194C162.202 38.282 161.605 38.4634 160.794 38.4634H148.954V21.5034ZM185.198 38.5914C183.854 38.5914 182.638 38.314 181.55 37.7594C180.462 37.1834 179.576 36.074 178.894 34.4314L178.158 32.6394H169.646L167.022 38.4634H165.358L174.798 17.3434H176.238L183.406 34.4314C184.216 36.4154 185.326 37.482 186.734 37.6314V38.4314C186.35 38.538 185.838 38.5914 185.198 38.5914ZM170.318 31.1994H177.55L174.03 22.8474L170.318 31.1994ZM212.925 39.9034C210.621 39.9034 208.957 39.37 207.933 38.3034C206.93 37.2154 206.429 35.4554 206.429 33.0234V21.6954L199.421 38.4634H198.365L189.789 21.0554V38.4634H188.189V17.3434H192.093L199.837 33.0554L206.397 17.3434H210.589V33.0234C210.589 35.0287 210.759 36.5007 211.101 37.4394C211.442 38.378 212.05 38.9327 212.925 39.1034V39.9034Z" fill="#866A24"/>
<path d="M32.9143 41.6634H213.565V43.2634H32.9143V41.6634Z" fill="#866A24"/>
<path d="M45.7308 62.8774C45.7308 62.3174 45.8218 61.7889 46.0038 61.2919C46.1928 60.7949 46.4903 60.3959 46.8963 60.0949C47.3093 59.7869 47.8518 59.6329 48.5238 59.6329C49.0208 59.6329 49.4758 59.7099 49.8888 59.8639C50.3088 60.0109 50.7078 60.1719 51.0858 60.3469C51.3868 60.4869 51.6773 60.6094 51.9573 60.7144C52.2373 60.8194 52.5138 60.8719 52.7868 60.8719C53.1788 60.8719 53.4868 60.7564 53.7108 60.5254C53.9418 60.2944 54.0713 59.9969 54.0993 59.6329H55.5903C55.5903 60.1999 55.4993 60.7319 55.3173 61.2289C55.1353 61.7189 54.8378 62.1179 54.4248 62.4259C54.0188 62.7269 53.4763 62.8774 52.7973 62.8774C52.3213 62.8774 51.8768 62.8074 51.4638 62.6674C51.0508 62.5204 50.6588 62.3629 50.2878 62.1949C49.9728 62.0549 49.6683 61.9324 49.3743 61.8274C49.0873 61.7154 48.8003 61.6594 48.5133 61.6594C48.1213 61.6594 47.8133 61.7714 47.5893 61.9954C47.3723 62.2194 47.2463 62.5134 47.2113 62.8774H45.7308ZM65.8929 68.7049C64.7729 68.7049 63.8209 68.4879 63.0369 68.0539C62.2599 67.6199 61.6334 67.0389 61.1574 66.3109C60.6814 65.5759 60.3314 64.7569 60.1074 63.8539C59.8904 62.9509 59.7819 62.0374 59.7819 61.1134C59.7819 60.2104 59.8939 59.3109 60.1179 58.4149C60.3419 57.5119 60.6954 56.6929 61.1784 55.9579C61.6684 55.2159 62.3019 54.6244 63.0789 54.1834C63.8559 53.7354 64.7939 53.5114 65.8929 53.5114C66.8099 53.5114 67.5904 53.6514 68.2344 53.9314C68.8784 54.2044 69.4069 54.5579 69.8199 54.9919C70.2399 55.4259 70.5619 55.8774 70.7859 56.3464L68.8749 57.2914C68.6439 56.9414 68.3954 56.6334 68.1294 56.3674C67.8634 56.0944 67.5519 55.8844 67.1949 55.7374C66.8379 55.5834 66.4039 55.5064 65.8929 55.5064C65.1649 55.5064 64.5489 55.6779 64.0449 56.0209C63.5409 56.3569 63.1384 56.8014 62.8374 57.3544C62.5364 57.9074 62.3194 58.5129 62.1864 59.1709C62.0534 59.8289 61.9869 60.4764 61.9869 61.1134C61.9869 61.7994 62.0604 62.4749 62.2074 63.1399C62.3544 63.7979 62.5889 64.3964 62.9109 64.9354C63.2329 65.4674 63.6389 65.8944 64.1289 66.2164C64.6189 66.5314 65.2069 66.6889 65.8929 66.6889C66.6489 66.6889 67.2614 66.5174 67.7304 66.1744C68.1994 65.8244 68.6019 65.3729 68.9379 64.8199L70.8909 65.5444C70.6179 66.1394 70.2574 66.6749 69.8094 67.1509C69.3614 67.6269 68.8154 68.0049 68.1714 68.2849C67.5274 68.5649 66.7679 68.7049 65.8929 68.7049ZM74.771 68.4634V53.7634H76.892V59.8534H83.591V53.7634H85.712V68.4634H83.591V61.8589H76.892V68.4634H74.771ZM96.2776 68.7154C95.1156 68.7154 94.1321 68.4949 93.3271 68.0539C92.5221 67.6059 91.8746 67.0144 91.3846 66.2794C90.8946 65.5374 90.5376 64.7184 90.3136 63.8224C90.0896 62.9264 89.9776 62.0234 89.9776 61.1134C89.9776 60.2034 90.0896 59.3004 90.3136 58.4044C90.5376 57.5084 90.8946 56.6929 91.3846 55.9579C91.8746 55.2159 92.5221 54.6244 93.3271 54.1834C94.1321 53.7354 95.1156 53.5114 96.2776 53.5114C97.4396 53.5114 98.4231 53.7354 99.2281 54.1834C100.033 54.6244 100.681 55.2159 101.171 55.9579C101.661 56.6929 102.014 57.5084 102.231 58.4044C102.455 59.3004 102.567 60.2034 102.567 61.1134C102.567 62.0234 102.455 62.9264 102.231 63.8224C102.014 64.7184 101.661 65.5374 101.171 66.2794C100.681 67.0144 100.033 67.6059 99.2281 68.0539C98.4231 68.4949 97.4396 68.7154 96.2776 68.7154ZM96.2776 66.6994C97.0336 66.6994 97.6706 66.5279 98.1886 66.1849C98.7136 65.8419 99.1371 65.3939 99.4591 64.8409C99.7811 64.2879 100.012 63.6859 100.152 63.0349C100.292 62.3769 100.362 61.7364 100.362 61.1134C100.362 60.4344 100.292 59.7659 100.152 59.1079C100.012 58.4429 99.7811 57.8409 99.4591 57.3019C99.1441 56.7559 98.7241 56.3219 98.1991 55.9999C97.6811 55.6709 97.0406 55.5064 96.2776 55.5064C95.5146 55.5064 94.8706 55.6779 94.3456 56.0209C93.8276 56.3639 93.4076 56.8154 93.0856 57.3754C92.7706 57.9284 92.5396 58.5339 92.3926 59.1919C92.2526 59.8429 92.1826 60.4834 92.1826 61.1134C92.1826 61.7854 92.2526 62.4539 92.3926 63.1189C92.5396 63.7769 92.7706 64.3789 93.0856 64.9249C93.4076 65.4639 93.8276 65.8944 94.3456 66.2164C94.8706 66.5384 95.5146 66.6994 96.2776 66.6994ZM112.417 68.7049C111.297 68.7049 110.345 68.4879 109.561 68.0539C108.784 67.6199 108.157 67.0389 107.681 66.3109C107.205 65.5759 106.855 64.7569 106.631 63.8539C106.414 62.9509 106.306 62.0374 106.306 61.1134C106.306 60.2104 106.418 59.3109 106.642 58.4149C106.866 57.5119 107.219 56.6929 107.702 55.9579C108.192 55.2159 108.826 54.6244 109.603 54.1834C110.38 53.7354 111.318 53.5114 112.417 53.5114C113.334 53.5114 114.114 53.6514 114.758 53.9314C115.402 54.2044 115.931 54.5579 116.344 54.9919C116.764 55.4259 117.086 55.8774 117.31 56.3464L115.399 57.2914C115.168 56.9414 114.919 56.6334 114.653 56.3674C114.387 56.0944 114.076 55.8844 113.719 55.7374C113.362 55.5834 112.928 55.5064 112.417 55.5064C111.689 55.5064 111.073 55.6779 110.569 56.0209C110.065 56.3569 109.662 56.8014 109.361 57.3544C109.06 57.9074 108.843 58.5129 108.71 59.1709C108.577 59.8289 108.511 60.4764 108.511 61.1134C108.511 61.7994 108.584 62.4749 108.731 63.1399C108.878 63.7979 109.113 64.3964 109.435 64.9354C109.757 65.4674 110.163 65.8944 110.653 66.2164C111.143 66.5314 111.731 66.6889 112.417 66.6889C113.173 66.6889 113.785 66.5174 114.254 66.1744C114.723 65.8244 115.126 65.3729 115.462 64.8199L117.415 65.5444C117.142 66.1394 116.781 66.6749 116.333 67.1509C115.885 67.6269 115.339 68.0049 114.695 68.2849C114.051 68.5649 113.292 68.7049 112.417 68.7049ZM126.801 68.7154C125.639 68.7154 124.656 68.4949 123.851 68.0539C123.046 67.6059 122.398 67.0144 121.908 66.2794C121.418 65.5374 121.061 64.7184 120.837 63.8224C120.613 62.9264 120.501 62.0234 120.501 61.1134C120.501 60.2034 120.613 59.3004 120.837 58.4044C121.061 57.5084 121.418 56.6929 121.908 55.9579C122.398 55.2159 123.046 54.6244 123.851 54.1834C124.656 53.7354 125.639 53.5114 126.801 53.5114C127.963 53.5114 128.947 53.7354 129.752 54.1834C130.557 54.6244 131.204 55.2159 131.694 55.9579C132.184 56.6929 132.538 57.5084 132.755 58.4044C132.979 59.3004 133.091 60.2034 133.091 61.1134C133.091 62.0234 132.979 62.9264 132.755 63.8224C132.538 64.7184 132.184 65.5374 131.694 66.2794C131.204 67.0144 130.557 67.6059 129.752 68.0539C128.947 68.4949 127.963 68.7154 126.801 68.7154ZM126.801 66.6994C127.557 66.6994 128.194 66.5279 128.712 66.1849C129.237 65.8419 129.661 65.3939 129.983 64.8409C130.305 64.2879 130.536 63.6859 130.676 63.0349C130.816 62.3769 130.886 61.7364 130.886 61.1134C130.886 60.4344 130.816 59.7659 130.676 59.1079C130.536 58.4429 130.305 57.8409 129.983 57.3019C129.668 56.7559 129.248 56.3219 128.723 55.9999C128.205 55.6709 127.564 55.5064 126.801 55.5064C126.038 55.5064 125.394 55.6779 124.869 56.0209C124.351 56.3639 123.931 56.8154 123.609 57.3754C123.294 57.9284 123.063 58.5339 122.916 59.1919C122.776 59.8429 122.706 60.4834 122.706 61.1134C122.706 61.7854 122.776 62.4539 122.916 63.1189C123.063 63.7769 123.294 64.3789 123.609 64.9249C123.931 65.4639 124.351 65.8944 124.869 66.2164C125.394 66.5384 126.038 66.6994 126.801 66.6994ZM137.336 68.4634V53.7634H139.457V66.4054H146.65V68.4634H137.336ZM149.518 68.4634L154.852 53.7634H156.847L162.192 68.4634H159.976L158.748 65.0299H152.983L151.776 68.4634H149.518ZM153.634 63.1294H158.065L156.312 58.1839C156.263 58.0509 156.21 57.9004 156.154 57.7324C156.098 57.5574 156.042 57.3859 155.986 57.2179C155.93 57.0499 155.888 56.9029 155.86 56.7769C155.825 56.9029 155.78 57.0499 155.724 57.2179C155.675 57.3859 155.622 57.5574 155.566 57.7324C155.51 57.9004 155.458 58.0509 155.409 58.1839L153.634 63.1294ZM166.93 68.4634V55.8004H162.814V53.7634H173.177V55.8004H169.051V68.4634H166.93ZM177.134 68.4634V53.7634H186.269V55.7689H179.255V59.8639H183.717V61.8694H179.255V66.4369H186.72V68.4634H177.134ZM190.803 62.8774C190.803 62.3174 190.894 61.7889 191.076 61.2919C191.265 60.7949 191.563 60.3959 191.969 60.0949C192.382 59.7869 192.924 59.6329 193.596 59.6329C194.093 59.6329 194.548 59.7099 194.961 59.8639C195.381 60.0109 195.78 60.1719 196.158 60.3469C196.459 60.4869 196.75 60.6094 197.03 60.7144C197.31 60.8194 197.586 60.8719 197.859 60.8719C198.251 60.8719 198.559 60.7564 198.783 60.5254C199.014 60.2944 199.144 59.9969 199.172 59.6329H200.663C200.663 60.1999 200.572 60.7319 200.39 61.2289C200.208 61.7189 199.91 62.1179 199.497 62.4259C199.091 62.7269 198.549 62.8774 197.87 62.8774C197.394 62.8774 196.949 62.8074 196.536 62.6674C196.123 62.5204 195.731 62.3629 195.36 62.1949C195.045 62.0549 194.741 61.9324 194.447 61.8274C194.16 61.7154 193.873 61.6594 193.586 61.6594C193.194 61.6594 192.886 61.7714 192.662 61.9954C192.445 62.2194 192.319 62.5134 192.284 62.8774H190.803Z" fill="#866A24"/>
</svg>
