<svg width="24" height="25" viewBox="0 0 24 25" fill="none" xmlns="http://www.w3.org/2000/svg">
<g clip-path="url(#clip0_825_264)">
<path d="M24.0001 12.4549C24.0001 5.78588 18.6271 0.379883 12.0001 0.379883C5.37007 0.381383 -0.00292969 5.78588 -0.00292969 12.4564C-0.00292969 18.4819 4.38607 23.4769 10.1221 24.3829V15.9454H7.07707V12.4564H10.1251V9.79388C10.1251 6.76838 11.9176 5.09738 14.6581 5.09738C15.9721 5.09738 17.3446 5.33288 17.3446 5.33288V8.30288H15.8311C14.3416 8.30288 13.8766 9.23438 13.8766 10.1899V12.4549H17.2036L16.6726 15.9439H13.8751V24.3814C19.6111 23.4754 24.0001 18.4804 24.0001 12.4549Z" fill="#4D2700"/>
</g>
<defs>
<clipPath id="clip0_825_264">
<rect width="24" height="24" fill="white" transform="translate(0 0.381348)"/>
</clipPath>
</defs>
</svg>
