<svg width="135" height="17" viewBox="0 0 135 17" fill="none" xmlns="http://www.w3.org/2000/svg">
<path d="M14.0625 0.375H1.6875C0.738281 0.375 0 1.14844 0 2.0625V14.4375C0 15.3867 0.738281 16.125 1.6875 16.125H6.50391V10.7812H4.28906V8.25H6.50391V6.35156C6.50391 4.17188 7.80469 2.94141 9.77344 2.94141C10.7578 2.94141 11.7422 3.11719 11.7422 3.11719V5.26172H10.6523C9.5625 5.26172 9.21094 5.92969 9.21094 6.63281V8.25H11.6367L11.25 10.7812H9.21094V16.125H14.0625C14.9766 16.125 15.75 15.3867 15.75 14.4375V2.0625C15.75 1.14844 14.9766 0.375 14.0625 0.375ZM74.25 0.375H60.7148C60.1172 0.375 59.625 0.902344 59.625 1.53516V15C59.625 15.6328 60.1172 16.125 60.7148 16.125H74.25C74.8477 16.125 75.375 15.6328 75.375 15V1.53516C75.375 0.902344 74.8477 0.375 74.25 0.375ZM64.3711 13.875H62.0508V6.38672H64.3711V13.875ZM63.2109 5.33203C62.4375 5.33203 61.8398 4.73438 61.8398 3.99609C61.8398 3.25781 62.4375 2.625 63.2109 2.625C63.9492 2.625 64.5469 3.25781 64.5469 3.99609C64.5469 4.73438 63.9492 5.33203 63.2109 5.33203ZM73.125 13.875H70.7695V10.2188C70.7695 9.375 70.7695 8.25 69.5742 8.25C68.3438 8.25 68.168 9.19922 68.168 10.1836V13.875H65.8477V6.38672H68.0625V7.40625H68.0977C68.4141 6.80859 69.1875 6.17578 70.3125 6.17578C72.668 6.17578 73.125 7.75781 73.125 9.76172V13.875ZM97.3125 4.20703C95.0625 4.20703 93.2695 6.03516 93.2695 8.25C93.2695 10.5 95.0625 12.293 97.3125 12.293C99.5273 12.293 101.355 10.5 101.355 8.25C101.355 6.03516 99.5273 4.20703 97.3125 4.20703ZM97.3125 10.8867C95.8711 10.8867 94.6758 9.72656 94.6758 8.25C94.6758 6.80859 95.8359 5.64844 97.3125 5.64844C98.7539 5.64844 99.9141 6.80859 99.9141 8.25C99.9141 9.72656 98.7539 10.8867 97.3125 10.8867ZM102.445 4.06641C102.445 3.53906 102.023 3.11719 101.496 3.11719C100.969 3.11719 100.547 3.53906 100.547 4.06641C100.547 4.59375 100.969 5.01562 101.496 5.01562C102.023 5.01562 102.445 4.59375 102.445 4.06641ZM105.117 5.01562C105.047 3.75 104.766 2.625 103.852 1.71094C102.938 0.796875 101.812 0.515625 100.547 0.445312C99.2461 0.375 95.3438 0.375 94.043 0.445312C92.7773 0.515625 91.6875 0.796875 90.7383 1.71094C89.8242 2.625 89.543 3.75 89.4727 5.01562C89.4023 6.31641 89.4023 10.2188 89.4727 11.5195C89.543 12.7852 89.8242 13.875 90.7383 14.8242C91.6875 15.7383 92.7773 16.0195 94.043 16.0898C95.3438 16.1602 99.2461 16.1602 100.547 16.0898C101.812 16.0195 102.938 15.7383 103.852 14.8242C104.766 13.875 105.047 12.7852 105.117 11.5195C105.188 10.2188 105.188 6.31641 105.117 5.01562ZM103.43 12.8906C103.184 13.5938 102.621 14.1211 101.953 14.4023C100.898 14.8242 98.4375 14.7188 97.3125 14.7188C96.1523 14.7188 93.6914 14.8242 92.6719 14.4023C91.9688 14.1211 91.4414 13.5938 91.1602 12.8906C90.7383 11.8711 90.8438 9.41016 90.8438 8.25C90.8438 7.125 90.7383 4.66406 91.1602 3.60938C91.4414 2.94141 91.9688 2.41406 92.6719 2.13281C93.6914 1.71094 96.1523 1.81641 97.3125 1.81641C98.4375 1.81641 100.898 1.71094 101.953 2.13281C102.621 2.37891 103.148 2.94141 103.43 3.60938C103.852 4.66406 103.746 7.125 103.746 8.25C103.746 9.41016 103.852 11.8711 103.43 12.8906ZM125.789 6.38672V10.1836L129.164 8.28516L125.789 6.38672ZM135 2.0625C135 1.14844 134.227 0.375 133.312 0.375H120.938C119.988 0.375 119.25 1.14844 119.25 2.0625V14.4375C119.25 15.3867 119.988 16.125 120.938 16.125H133.312C134.227 16.125 135 15.3867 135 14.4375V2.0625ZM133.523 8.28516C133.523 8.28516 133.523 10.3594 133.242 11.3789C133.102 11.9414 132.645 12.3633 132.117 12.5039C131.098 12.75 127.125 12.75 127.125 12.75C127.125 12.75 123.117 12.75 122.098 12.5039C121.57 12.3633 121.113 11.9414 120.973 11.3789C120.727 10.3594 120.727 8.28516 120.727 8.28516C120.727 8.28516 120.727 6.17578 120.973 5.19141C121.113 4.62891 121.57 4.17188 122.098 4.03125C123.117 3.75 127.125 3.75 127.125 3.75C127.125 3.75 131.098 3.75 132.117 4.03125C132.645 4.17188 133.102 4.62891 133.242 5.19141C133.523 6.17578 133.523 8.28516 133.523 8.28516Z" fill="#464646"/>
<path d="M43.875 0.375H31.5C30.5508 0.375 29.8125 1.14844 29.8125 2.0625V14.4375C29.8125 15.3867 30.5508 16.125 31.5 16.125H43.875C44.7891 16.125 45.5625 15.3867 45.5625 14.4375V2.0625C45.5625 1.14844 44.7891 0.375 43.875 0.375ZM42.1523 5.96484C42.1523 6.07031 42.1523 6.17578 42.1523 6.28125C42.1523 9.30469 39.832 12.8203 35.5781 12.8203C34.2773 12.8203 33.082 12.4688 32.0625 11.8008C32.2383 11.8359 32.4141 11.8359 32.5898 11.8359C33.6797 11.8359 34.6641 11.4492 35.4727 10.8516C34.4531 10.8164 33.6094 10.1484 33.293 9.23438C33.6797 9.30469 33.9961 9.30469 34.3477 9.19922C33.293 8.98828 32.5195 8.07422 32.5195 6.94922V6.91406C32.8008 7.08984 33.1523 7.19531 33.5391 7.19531C32.9062 6.77344 32.5195 6.07031 32.5195 5.29688C32.5195 4.83984 32.625 4.45312 32.8359 4.10156C33.9609 5.50781 35.6836 6.42188 37.582 6.52734C37.2656 4.98047 38.4258 3.67969 39.832 3.67969C40.5 3.67969 41.0977 3.96094 41.5195 4.41797C42.0469 4.3125 42.5391 4.13672 42.9961 3.85547C42.8203 4.41797 42.4336 4.83984 41.9766 5.12109C42.4336 5.08594 42.8906 4.94531 43.3125 4.76953C42.9961 5.22656 42.5742 5.64844 42.1523 5.96484Z" fill="#FE50A6"/>
</svg>
